<?xml version="1.0" encoding="UTF-8" standalone="no"?>
<svg width="6048px" height="2592px" viewBox="0 0 6048 2592" version="1.1" xmlns="http://www.w3.org/2000/svg" xmlns:xlink="http://www.w3.org/1999/xlink" xmlns:sketch="http://www.bohemiancoding.com/sketch/ns">
    <!-- Generator: Sketch 3.4.4 (17249) - http://www.bohemiancoding.com/sketch -->
    <title>MoDH Vector Black</title>
    <desc>Created with Sketch.</desc>
    <defs>
        <path id="path-1" d="M6048,1295.97 L6048,2591.94 L0,2591.94 L0,1295.97 L0,0 L6048,0 L6048,1295.97 L6048,1295.97 Z"></path>
    </defs>
    <g id="Page-1" stroke="none" stroke-width="1" fill="none" fill-rule="evenodd" sketch:type="MSPage">
        <g id="MoDH-Vector-Black" sketch:type="MSLayerGroup">
            <mask id="mask-2" sketch:name="Clip 2" fill="white">
                <use xlink:href="#path-1"></use>
            </mask>
            <g id="Clip-2"></g>
            <path d="M0,0 L6048,0 L6048,2592 L0,2592 L0,0 Z" id="Stroke-1" stroke="#0A0A08" stroke-width="0.216" sketch:type="MSShapeGroup" mask="url(#mask-2)"></path>
            <path d="M5721.069,828.1 C5723.98,829.85 5724.38,834.83 5721.77,836.98 L5711.47,838.77 C5692.33,841.96 5681.3,864.39 5662.92,895.01 L5639.71,933.79 C5623.51,960.84 5622.439,964.05 5622.439,991.46 L5622.439,1009.98 C5622.439,1048.04 5624.65,1053.76 5644.52,1055.18 L5658.5,1056.23 C5660.7,1058.37 5659.96,1064.08 5657.72,1065.16 C5634.94,1064.44 5622.439,1064.08 5607.68,1064.08 C5592.25,1064.08 5579,1064.44 5559.48,1065.16 C5557.24,1064.08 5556.51,1058.37 5558.73,1056.23 L5570.16,1055.18 C5591.5,1053.04 5592.25,1048.04 5592.25,1009.98 L5592.25,991.81 C5592.25,972.25 5591.15,967.62 5580.46,947.68 L5537.03,865.82 C5524.5,842.32 5518.97,840.53 5507.96,838.77 L5497.66,836.98 C5495.45,834.48 5495.81,829.5 5498.34,828.1 C5510.14,828.79 5523.42,829.15 5541.06,829.15 C5558.01,829.15 5571.24,828.79 5580.46,828.1 C5583.74,829.15 5583.74,834.83 5581.54,836.98 L5576.79,837.71 C5563.87,839.47 5561.33,841.24 5561.33,844.1 C5561.33,847.65 5570.89,867.94 5572.729,871.52 C5586.35,897.85 5599.98,925.96 5614.33,950.53 C5625.72,931.65 5637.87,911.01 5648.9,890.37 C5659.2,871.86 5672.85,847.65 5672.85,843.38 C5672.85,841.24 5666.22,838.77 5657.39,837.71 L5650.72,836.98 C5648.2,834.48 5648.54,829.5 5651.5,828.1 C5664.73,828.79 5675.39,829.15 5686.82,829.15 C5698.22,829.15 5708.52,828.79 5721.069,828.1" id="Fill-3" fill="#0A0A08" sketch:type="MSShapeGroup" mask="url(#mask-2)"></path>
            <path d="M5435.35,938.06 C5445.29,930.59 5453.74,918.14 5453.74,893.93 C5453.74,865.82 5435.67,839.1 5394.85,839.1 C5372,839.1 5370.93,840.53 5370.93,850.51 L5370.93,933.79 C5370.93,940.2 5370.93,944.12 5372,945.53 C5373.14,946.62 5378.63,947.33 5397.43,947.33 C5410.69,947.33 5424.66,945.9 5435.35,938.06 L5435.35,938.06 Z M5572.97,1103.07 C5574.83,1103.78 5575.17,1106.63 5573.34,1108.07 C5570.03,1109.14 5564.13,1109.83 5557.13,1109.83 C5525.85,1109.83 5488.6,1072.73 5462.47,1036.78 C5452.89,1023.59 5425.76,985.42 5414.34,969.37 C5408.819,961.56 5402.93,958.01 5388.21,958.01 C5371.66,958.01 5370.93,958.35 5370.93,965.85 L5370.93,1010.69 C5370.93,1048.04 5371.66,1052.33 5392.99,1055.18 L5400.74,1056.23 C5402.93,1058.03 5402.2,1064.08 5399.99,1065.16 C5383.45,1064.44 5370.93,1064.08 5356.2,1064.08 C5340.75,1064.08 5327.5,1064.44 5310.21,1065.16 C5307.979,1064.08 5307.26,1058.75 5309.47,1056.23 L5318.65,1055.18 C5340.01,1052.68 5340.75,1048.04 5340.75,1010.69 L5340.75,882.88 C5340.75,849.08 5339.63,843.02 5324.55,841.24 L5312.76,839.83 C5310.21,838.04 5310.21,832.36 5313.13,830.94 C5333.73,829.15 5359.14,828.1 5395.22,828.1 C5418.04,828.1 5439.74,829.85 5456.7,838.77 C5474.37,847.65 5487.229,863.68 5487.229,888.6 C5487.229,922.4 5459.62,940.92 5441.22,948.04 C5439.38,950.16 5441.22,953.74 5443.06,956.58 C5472.51,1002.51 5522.55,1072.82 5547.59,1093.13 C5553.82,1098.44 5563.029,1102.38 5572.97,1103.07 L5572.97,1103.07 Z" id="Fill-4" fill="#0A0A08" sketch:type="MSShapeGroup" mask="url(#mask-2)"></path>
            <path d="M5271.79,956.58 C5271.79,897.85 5246.91,834.48 5181.81,834.48 C5146.34,834.48 5100.3,859.76 5100.3,937.69 C5100.3,990.4 5124.84,1058.75 5192.01,1058.75 C5232.91,1058.75 5271.79,1026.69 5271.79,956.58 L5271.79,956.58 Z M5187.59,823.46 C5266.34,823.46 5305.88,882.88 5305.88,945.53 C5305.88,1017.45 5253.38,1069.79 5187.59,1069.79 C5111.899,1069.79 5066.22,1013.18 5066.22,949.1 C5066.22,877.93 5117.36,823.46 5187.59,823.46 L5187.59,823.46 Z" id="Fill-5" fill="#0A0A08" sketch:type="MSShapeGroup" mask="url(#mask-2)"></path>
            <path d="M5067.04,819.2 C5068.89,818.46 5072.92,818.83 5073.64,820.25 C5069.6,834.83 5067.04,863.68 5068.15,874.35 C5066.65,877.21 5060.39,877.21 5058.569,875.07 C5057.45,866.15 5054.87,853 5049.34,849.08 C5040.899,843.02 5026.89,840.18 5006.65,840.18 L4980.53,840.18 C4969.49,840.18 4969.85,840.53 4969.85,852.27 L4969.85,1010.69 C4969.85,1048.04 4970.62,1053.4 4991.97,1055.18 L5003.7,1056.23 C5005.91,1057.68 5005.2,1064.08 5002.98,1065.16 C4982,1064.44 4969.49,1064.08 4954.77,1064.08 C4940.03,1064.08 4927.169,1064.44 4903.61,1065.16 C4901.38,1064.08 4900.66,1058.03 4903.61,1056.23 L4916.84,1055.18 C4937.819,1053.4 4939.67,1048.04 4939.67,1010.69 L4939.67,851.57 C4939.67,840.53 4939.67,840.18 4928.65,840.18 L4908.38,840.18 C4892.57,840.18 4872.3,840.9 4863.12,849.08 C4854.29,856.9 4850.6,864.76 4846.56,873.64 C4843.61,875.78 4838.45,874 4837.01,871.14 C4842.87,855.14 4848.39,832.36 4850.99,818.11 C4852.08,817.4 4856.86,817.05 4857.96,818.11 C4860.18,829.5 4872.3,829.15 4889.23,829.15 L5038.31,829.15 C5058.18,829.15 5061.52,828.44 5067.04,819.2" id="Fill-6" fill="#0A0A08" sketch:type="MSShapeGroup" mask="url(#mask-2)"></path>
            <path d="M4814.09,830.22 C4817.59,838.77 4821.149,858.7 4821.149,873.64 C4819.54,875.78 4813.27,876.84 4811.32,874.72 C4806.21,857.61 4795.6,834.48 4757.88,834.48 C4719.37,834.48 4711.14,857.61 4711.14,874 C4711.14,894.64 4729.98,909.59 4744.54,917.77 L4775.98,935.57 C4800.71,949.47 4825.09,970.11 4825.09,1003.92 C4825.09,1043.07 4792.48,1069.79 4741.38,1069.79 C4708.37,1069.79 4687.54,1060.52 4680.11,1056.61 C4675.37,1048.76 4670.259,1023.49 4669.48,1006.78 C4671.43,1004.28 4677.32,1003.57 4678.919,1005.69 C4684.81,1023.85 4700.9,1058.75 4746.51,1058.75 C4779.51,1058.75 4795.6,1039.17 4795.6,1017.79 C4795.6,1002.14 4792.05,984.69 4763.38,967.99 L4726.07,945.9 C4706.42,934.16 4683.64,913.85 4683.64,884.66 C4683.64,850.88 4712.7,823.46 4763.79,823.46 C4775.98,823.46 4790.1,825.58 4800.31,828.1 C4805.44,829.5 4810.93,830.22 4814.09,830.22" id="Fill-7" fill="#0A0A08" sketch:type="MSShapeGroup" mask="url(#mask-2)"></path>
            <path d="M4654.45,828.1 C4656.66,829.15 4657.39,835.57 4655.189,836.98 L4645.98,837.71 C4624.26,839.47 4623.53,845.53 4623.53,883.27 L4623.53,1009.98 C4623.53,1047.7 4624.26,1052.68 4645.98,1055.18 L4655.189,1056.23 C4657.39,1057.68 4656.66,1064.08 4654.45,1065.16 C4636.05,1064.44 4623.53,1064.08 4608.8,1064.08 C4593.34,1064.08 4580.84,1064.44 4562.42,1065.16 C4560.25,1064.08 4559.5,1058.37 4561.71,1056.23 L4570.9,1055.18 C4592.6,1052.68 4593.34,1047.7 4593.34,1009.98 L4593.34,883.27 C4593.34,845.53 4592.6,839.47 4570.9,837.71 L4561.71,836.98 C4559.5,835.57 4560.25,829.15 4562.42,828.1 C4580.84,828.79 4593.34,829.15 4608.8,829.15 C4623.53,829.15 4636.05,828.79 4654.45,828.1" id="Fill-8" fill="#0A0A08" sketch:type="MSShapeGroup" mask="url(#mask-2)"></path>
            <path d="M4558.61,1054.27 C4561.38,1056.02 4560.439,1064.08 4557.65,1065.42 C4535.52,1064.53 4519.8,1064.08 4501.79,1064.08 C4482.85,1064.08 4466.22,1064.53 4445.92,1065.42 C4443.14,1064.08 4442.21,1056.93 4444.98,1054.27 L4453.76,1052.9 C4481.93,1048.43 4483.96,1043.97 4483.96,997.07 L4483.96,934.1 C4483.96,920.69 4481,919.8 4458.84,919.8 L4326.75,919.8 C4304.56,919.8 4302.14,920.69 4302.14,934.1 L4302.14,997.07 C4302.14,1043.97 4305.94,1050.24 4331.83,1052.9 L4345.21,1054.27 C4347.99,1056.02 4347.06,1064.08 4344.3,1065.42 C4319.36,1064.53 4303.649,1064.08 4285.64,1064.08 C4265.77,1064.08 4250.08,1064.96 4232.06,1065.42 C4229.279,1064.08 4228.37,1056.93 4231.14,1054.27 L4238.99,1052.9 C4264.85,1048.43 4265.77,1043.97 4265.77,997.07 L4265.77,836.28 C4265.77,789.39 4262.56,781.79 4238.53,780.02 L4226.5,779.11 C4223.77,777.34 4224.66,769.3 4227.45,767.96 C4250.08,768.39 4265.77,769.3 4285.64,769.3 C4303.649,769.3 4319.36,768.85 4339.23,767.96 C4342,769.3 4342.89,777.34 4340.14,779.11 L4331.37,780.02 C4304.56,782.68 4302.14,789.39 4302.14,836.28 L4302.14,887.65 C4302.14,901.51 4304.56,901.94 4326.75,901.94 L4458.84,901.94 C4481,901.94 4483.96,901.51 4483.96,887.65 L4483.96,836.28 C4483.96,789.39 4481,782.68 4453.76,780.02 L4444.98,779.11 C4442.21,777.34 4443.14,769.3 4445.92,767.96 C4467.16,768.85 4482.85,769.3 4501.79,769.3 C4519.8,769.3 4535.52,768.85 4556.27,767.96 C4559.04,769.3 4559.99,777.34 4557.22,779.11 L4547.52,780.02 C4520.71,782.68 4519.8,789.39 4519.8,836.28 L4519.8,997.07 C4519.8,1043.97 4520.71,1049.8 4547.52,1052.9 L4558.61,1054.27" id="Fill-9" fill="#0A0A08" sketch:type="MSShapeGroup" mask="url(#mask-2)"></path>
            <path d="M4099.15,822.02 C4103.38,824.22 4103.38,831.15 4100.31,834.8 L4089.08,836.63 C4073.25,839.18 4065.5,843.57 4065.5,862.93 C4065.5,938.18 4066.25,977.64 4068.57,1023.63 C4069.37,1040.44 4070.91,1049.22 4085.95,1051.06 L4098.38,1052.51 C4101.45,1055.42 4101.45,1063.83 4097.57,1065.3 C4079.82,1064.58 4063.15,1064.18 4044.21,1064.18 C4026.76,1064.18 4005.53,1064.58 3986.98,1065.3 C3982.31,1063.49 3981.94,1055.06 3985.79,1052.51 L3997.41,1051.06 C4015.22,1048.86 4015.22,1044.48 4015.22,1022.2 L4014.47,927.21 L4014.47,885.57 L4013.64,885.57 C3985.05,944.02 3954.08,1005.01 3928.58,1066.76 C3926.64,1068.21 3923.96,1069.32 3920.83,1069.32 C3917.37,1069.32 3913.08,1068.58 3910.79,1067.12 C3895.69,1021.82 3849.67,933.06 3827.99,885.57 L3827.25,885.57 C3825.68,909.31 3824.9,923.54 3824.53,942.54 C3824.12,966.29 3823.75,1002.84 3823.75,1024.72 C3823.75,1042.99 3826.07,1048.12 3841.53,1050.31 L3856.65,1052.51 C3859.69,1055.06 3858.96,1063.49 3855.82,1065.3 C3841.53,1064.58 3824.9,1064.18 3810.21,1064.18 C3798.4,1064.18 3783.36,1064.55 3768.54,1065.21 C3771.87,1062.88 3771.06,1054.33 3768.77,1052.51 L3766.81,1052.22 L3771.92,1051.4 C3791.66,1048.12 3792.81,1045.95 3795.12,1023.27 C3797.04,1005.39 3798.96,973.59 3801.32,938.93 C3802.87,914.46 3804,884.83 3804,865.11 C3804,844.3 3795.5,838.79 3780.04,836.25 L3771.52,834.8 C3768.44,831.89 3768.44,823.11 3772.72,822.02 C3785.84,822.75 3802.49,823.11 3821.41,823.11 C3834.21,823.11 3845.42,823.11 3859.34,822.02 C3859.34,844.64 3872.89,866.95 3889.88,901.26 L3915.41,952.76 C3918.89,960.12 3930.89,980.91 3936.29,990.05 C3941.34,981.25 3947.54,969.95 3957.98,948.39 L3977.69,908.23 C3996.27,870.62 4004.77,853.42 4013.26,822.02 C4031.06,823.49 4043.04,823.11 4054.66,823.11 C4067.45,823.11 4085.24,822.75 4099.15,822.02" id="Fill-10" fill="#0A0A08" sketch:type="MSShapeGroup" mask="url(#mask-2)"></path>
            <path d="M3768.54,1065.21 C3768.5,1065.24 3768.46,1065.27 3768.41,1065.3 C3768.07,1065.29 3767.73,1065.27 3767.38,1065.26 C3767.76,1065.24 3768.15,1065.23 3768.54,1065.21" id="Fill-11" fill="#672732" sketch:type="MSShapeGroup" mask="url(#mask-2)"></path>
            <path d="M3767.38,1065.26 C3767.09,1065.27 3766.81,1065.29 3766.52,1065.3 C3766.44,1065.28 3766.37,1065.25 3766.3,1065.22 C3766.66,1065.23 3767.03,1065.25 3767.38,1065.26" id="Fill-12" fill="#672732" sketch:type="MSShapeGroup" mask="url(#mask-2)"></path>
            <path d="M3640.37,962.28 C3649.25,962.28 3651.17,961.19 3648.1,951.66 L3638.06,922.12 C3632.64,906.4 3627.61,891.41 3624.13,883.72 C3620.28,891.79 3614.06,907.11 3608.28,923.92 L3598.6,951.34 C3595.13,961.19 3597.04,962.28 3606.74,962.28 L3640.37,962.28 L3640.37,962.28 Z M3766.81,1052.22 L3764.97,1052.51 C3761.53,1054.32 3761.48,1063.55 3766.3,1065.22 C3748.24,1064.55 3728.16,1064.18 3708.83,1064.18 C3689.5,1064.18 3674.41,1064.58 3656.63,1065.3 C3652.36,1063.11 3651.6,1055.42 3655.85,1052.51 L3668.21,1050.66 C3677.1,1049.22 3678.66,1046.66 3678.66,1044.48 C3678.66,1041.92 3675.96,1033.16 3671.3,1019.64 L3660.88,988.21 C3658.92,982.39 3655.85,981.64 3642.31,981.64 L3598.99,981.64 C3589.7,981.64 3588.57,981.98 3586.2,988.96 L3571.89,1031.34 C3569.62,1038.61 3569.21,1041.55 3569.21,1044.48 C3569.21,1046.66 3572.28,1048.86 3583.14,1050.66 L3594.74,1052.51 C3597.04,1055.06 3597.8,1063.49 3593.99,1065.3 C3580.45,1064.58 3564.96,1064.58 3548.7,1064.18 C3538.47,1064.18 3530.81,1064.86 3519.52,1065.16 C3522.42,1062.78 3522.36,1054.67 3519.34,1052.51 L3514.64,1051.77 L3518.13,1051.4 C3527.43,1050.31 3535.19,1047.37 3541.74,1033.16 C3548.33,1018.53 3555.3,1001.01 3565.71,974.69 L3600.55,885.57 C3609.44,862.54 3616.78,849.77 3615.62,839.18 C3634.19,835.18 3648.49,817.26 3649.25,817.26 C3654.3,817.26 3656.63,819.1 3658.13,824.56 C3661.27,835.18 3665.92,848.7 3675.54,874.62 L3728.15,1017.8 C3736.29,1039.72 3739.79,1048.12 3754.09,1050.31 L3766.81,1052.22 L3766.81,1052.22 Z" id="Fill-13" fill="#0A0A08" sketch:type="MSShapeGroup" mask="url(#mask-2)"></path>
            <path d="M3519.52,1065.16 C3519.46,1065.21 3519.4,1065.26 3519.34,1065.3 C3518.57,1065.27 3517.8,1065.24 3517.04,1065.22 C3517.89,1065.2 3518.72,1065.18 3519.52,1065.16" id="Fill-14" fill="#672732" sketch:type="MSShapeGroup" mask="url(#mask-2)"></path>
            <path d="M3517.79,822.02 C3520.92,824.22 3520.92,832.6 3517.79,834.8 L3510.09,835.91 C3492.31,838.45 3489.98,841.74 3489.98,875.72 L3489.98,1011.6 C3489.98,1045.59 3492.31,1048.12 3510.09,1051.06 L3514.64,1051.77 L3507.72,1052.51 C3505.13,1055.28 3504.65,1062.36 3508.25,1064.93 C3492.77,1064.44 3477.64,1064.18 3463.27,1064.18 C3443.93,1064.18 3425,1064.58 3406.42,1065.3 C3403.3,1063.11 3403.3,1054.71 3406.42,1052.51 L3414.92,1051.4 C3432.7,1049.22 3434.66,1045.59 3434.66,1011.6 L3434.66,958.99 C3434.66,948.76 3434.66,948.39 3418.42,948.39 L3337.95,948.39 C3322.1,948.39 3321.71,948.76 3321.71,958.99 L3321.71,1011.6 C3321.71,1045.59 3324.05,1048.86 3341.42,1051.06 L3353.81,1052.51 C3356.9,1054.71 3356.9,1063.11 3353.81,1065.3 C3331.78,1064.58 3312.41,1064.18 3295.03,1064.18 C3276.44,1064.18 3257.12,1064.58 3237.41,1065.3 C3234.3,1063.11 3234.3,1054.71 3237.41,1052.51 L3246.68,1051.4 C3264.46,1049.22 3266.43,1045.59 3266.43,1011.6 L3266.43,875.72 C3266.43,841.74 3264.46,838.07 3246.68,835.91 L3237.41,834.8 C3234.3,832.6 3234.3,824.22 3237.41,822.02 C3256.33,822.75 3276.44,823.11 3295.03,823.11 C3312.41,823.11 3331.78,822.75 3348.78,822.02 C3351.89,824.22 3351.89,832.6 3348.78,834.8 L3340.65,835.91 C3324.05,838.07 3321.71,841.74 3321.71,875.72 L3321.71,918.06 C3321.71,928.68 3322.1,929.04 3337.95,929.04 L3418.42,929.04 C3434.66,929.04 3434.66,928.68 3434.66,918.06 L3434.66,875.72 C3434.66,841.74 3432.7,838.79 3414.92,836.25 L3404.46,834.8 C3401.39,832.6 3401.39,824.22 3404.46,822.02 C3425.75,822.75 3444.7,823.11 3463.27,823.11 C3482.23,823.11 3500.02,822.75 3517.79,822.02" id="Fill-15" fill="#0A0A08" sketch:type="MSShapeGroup" mask="url(#mask-2)"></path>
            <path d="M3508.25,1064.93 C3511.17,1065.01 3514.1,1065.11 3517.04,1065.22 C3514.51,1065.27 3511.8,1065.3 3508.85,1065.3 C3508.64,1065.19 3508.44,1065.07 3508.25,1064.93" id="Fill-16" fill="#672732" sketch:type="MSShapeGroup" mask="url(#mask-2)"></path>
            <path d="M3133.02,932.33 C3139.61,926.14 3146.96,914.46 3146.96,892.88 C3146.96,860 3126.46,836.83 3096.3,836.83 C3080.39,836.83 3079.64,839.92 3079.64,857.46 L3079.64,928.68 C3079.64,941.47 3080.81,942.54 3103.62,942.54 C3117.55,942.54 3125.67,939.25 3133.02,932.33 L3133.02,932.33 Z M3272.53,1095.69 C3275.99,1097.52 3275.99,1103.01 3274.05,1105.19 C3267.85,1107.75 3255.49,1108.48 3243.48,1108.48 C3207.93,1108.48 3178.05,1074.94 3161.05,1048.62 C3155.47,1039.89 3128.87,1002.78 3114.45,971.42 C3109.8,961.55 3103.62,958.63 3093.96,958.63 C3080.39,958.63 3079.64,959.36 3079.64,966.68 L3079.64,1011.6 C3079.64,1045.19 3081.96,1047.75 3099.37,1050.66 L3109.8,1052.51 C3112.51,1054.35 3112.51,1063.11 3109.8,1065.3 C3089.31,1064.58 3071.56,1064.18 3052.93,1064.18 C3033.62,1064.18 3016.58,1064.58 2996.47,1065.3 C2993.4,1063.11 2993.4,1054.35 2996.47,1052.51 L3006.92,1050.66 C3024.33,1047.75 3026.66,1045.19 3026.66,1011.6 L3026.66,882.28 C3026.66,845.77 3025.87,839.79 3009.64,837.59 L2996.35,834.78 C2996.16,834.69 2995.97,834.58 2995.79,834.45 C2998.85,831.51 2998.09,824.22 2995.79,822.02 C3024.78,820.19 3059.15,820.03 3095.89,820.03 C3128.76,820.03 3156.99,824.78 3171.7,833.21 C3194.11,845.63 3205.75,865.82 3205.75,889.23 C3205.75,921.72 3182.53,935.65 3164.74,944.02 C3160.87,945.85 3160.87,948.05 3162.79,952.05 C3188.34,1001.01 3228.04,1070.48 3246.6,1085.46 C3256.64,1093.16 3266.71,1095.32 3272.53,1095.69 L3272.53,1095.69 Z" id="Fill-17" fill="#0A0A08" sketch:type="MSShapeGroup" mask="url(#mask-2)"></path>
            <path d="M2995.79,834.45 L2988.79,835.91 C2978.71,838.07 2971.38,840.29 2967.92,847.97 C2963.65,857.46 2962.13,885.21 2962.13,914.79 L2962.13,955.72 C2962.13,990.05 2958.63,1021.45 2937.35,1043.73 C2920.32,1060.91 2892.1,1070.05 2860.76,1070.05 C2831.36,1070.05 2805.06,1065.65 2784.2,1049.58 C2764.07,1033.88 2755.55,1006.86 2755.55,967.02 L2755.55,875.72 C2755.55,841.74 2753.23,839.54 2735.83,836.25 L2726.15,834.45 C2723.09,832.23 2722.69,824.22 2726.93,822.02 C2745.5,822.75 2764.85,823.11 2783.41,823.11 C2802.35,823.11 2821.3,822.75 2839.88,822.02 C2842.97,824.22 2842.97,832.23 2839.88,834.45 L2830.6,835.91 C2813.21,838.79 2810.87,841.74 2810.87,875.72 L2810.87,960.12 C2810.87,1002.84 2815.9,1049.95 2874.68,1049.95 C2924.19,1049.95 2939.27,1009.02 2939.27,958.99 L2939.27,914.79 C2939.27,885.21 2937.75,857.46 2933.48,847.97 C2930.02,840.29 2921.48,838.07 2911.04,836.25 L2900.6,834.45 C2897.5,831.51 2898.28,824.22 2900.6,822.02 C2921.48,822.75 2936.56,823.11 2952.43,823.11 C2966.76,823.11 2981.05,822.75 2995.79,822.02 C2991.36,823.75 2992.36,832.06 2995.79,834.45" id="Fill-18" fill="#0A0A08" sketch:type="MSShapeGroup" mask="url(#mask-2)"></path>
            <path d="M2530.97,1045.27 C2610.6,1045.27 2642.6,977.64 2642.6,917.11 C2642.6,837 2594.03,788.46 2510.73,788.46 C2498.29,788.46 2490.48,791.56 2486.8,794.23 C2481.76,797.88 2478.5,806.24 2478.5,820.03 L2478.5,982.49 C2478.5,1006.97 2479.41,1023.01 2487.71,1032.35 C2495.99,1041.26 2514.41,1045.27 2530.97,1045.27 L2530.97,1045.27 Z M2711.84,911.74 C2711.84,971.36 2682.4,1019.44 2629.47,1044.82 C2598.17,1059.94 2560.44,1065.72 2513.02,1065.72 C2491.38,1065.72 2468.39,1063.06 2451.81,1063.06 C2429.74,1063.06 2406.25,1063.51 2380.01,1064.39 C2378.17,1063.06 2377.25,1059.71 2377.25,1056.43 C2377.25,1053.15 2378.17,1049.93 2380.01,1048.84 L2394.29,1046.6 C2415,1043.48 2417.77,1039.91 2417.77,998.96 L2417.77,841.4 C2417.77,799.12 2416.84,790.7 2395.67,788.46 L2386.92,787.54 C2382.32,785.31 2382.32,772.42 2387.84,771.97 C2426.51,769.75 2462.39,767.96 2511.2,767.96 C2548.93,767.96 2586.67,771.53 2618.43,782.64 C2678.72,803.57 2711.84,856.1 2711.84,911.74 L2711.84,911.74 Z" id="Fill-19" fill="#0A0A08" sketch:type="MSShapeGroup" mask="url(#mask-2)"></path>
            <path d="M2309.74,832.85 C2309.74,842.06 2299.84,853.05 2293.97,853.05 C2290.65,853.05 2289.19,849.88 2288.84,847.4 C2287.74,827.88 2277.44,821.5 2268.31,821.5 C2260.22,821.5 2250.31,828.58 2241.9,840.66 C2225.02,864.42 2217.69,889.58 2207.8,923.28 L2253.62,923.28 C2256.21,927.19 2255.46,932.52 2249.96,936.4 L2204.47,936.4 C2202.27,942.45 2199.34,953.79 2194.94,969.39 C2183.96,1009.12 2174.04,1043.17 2162.31,1082.18 C2152.78,1114.12 2140.65,1132.2 2133.33,1139.27 C2127.83,1144.25 2110.96,1158.43 2089.31,1158.43 C2069.53,1158.43 2062.53,1146.39 2062.53,1141.06 C2062.53,1133.96 2066.93,1127.95 2070.99,1125.1 C2073.91,1122.98 2077.21,1124.04 2079.44,1126.52 C2088.21,1135.37 2099.22,1141.06 2107.28,1141.06 C2114.62,1141.06 2122.32,1138.59 2130.77,1111.27 C2147.63,1055.23 2160.45,994.23 2178.06,936.4 L2147.63,936.4 C2143.97,933.21 2145.43,926.48 2150.19,923.28 L2181.76,923.28 C2191.29,891.37 2201.19,863.71 2222.82,838.87 C2241.15,817.94 2260.22,809.44 2281.51,809.44 C2295.05,809.44 2309.74,818.65 2309.74,832.85" id="Fill-20" fill="#0A0A08" sketch:type="MSShapeGroup" mask="url(#mask-2)"></path>
            <path d="M2091.13,952.37 C2091.49,941.39 2089.29,928.95 2076.45,928.95 C2069.14,928.95 2060.33,932.15 2049.69,945.98 C2028.42,973.67 2014.11,1015.88 2012.99,1034.65 C2012.26,1047.07 2017.39,1057.34 2028.04,1057.34 C2036.12,1057.34 2045.28,1054.17 2057,1038.92 C2073.18,1018.01 2090.41,971.18 2091.13,952.37 L2091.13,952.37 Z M2079.02,918.32 C2105.06,918.32 2117.9,937.11 2116.44,963.03 C2115.34,982.51 2104.69,1016.56 2077.55,1043.53 C2054.8,1066.21 2035.02,1068 2025.12,1068 C2001.65,1068 1986.24,1051.32 1988.43,1020.81 C1989.91,998.82 2003.46,964.43 2028.42,941.39 C2047.48,923.65 2064,918.32 2079.02,918.32 L2079.02,918.32 Z" id="Fill-21" fill="#0A0A08" sketch:type="MSShapeGroup" mask="url(#mask-2)"></path>
            <path d="M1912.76,1055.23 C1914.99,1057.34 1914.6,1062.67 1912.03,1064.09 C1897,1063.38 1881.95,1063.02 1868.77,1063.02 C1855.9,1063.02 1839.42,1063.38 1824.37,1064.09 C1821.81,1062.33 1821.45,1057.34 1823.65,1055.23 L1834.29,1054.17 C1852.24,1052.38 1852.24,1046.71 1852.24,1024 L1851.17,876.11 L1850.42,876.11 C1847.84,880.02 1833.92,908.4 1826.57,922.22 L1793.95,984.3 C1777.42,1015.51 1760.92,1048.84 1754.32,1065.16 C1753.59,1066.21 1752.11,1066.58 1750.66,1066.58 C1749.92,1066.58 1748.11,1066.21 1747.37,1065.16 C1741.11,1046.34 1723.51,1011.6 1715.09,994.23 L1682.07,925.78 C1674.37,909.45 1666.67,891 1658.61,874.69 L1657.87,874.69 C1656.41,896.7 1655.31,917.26 1654.21,937.82 C1653.12,959.47 1651.62,991.04 1651.62,1021.18 C1651.62,1047.42 1653.82,1053.1 1668.13,1054.17 L1682.07,1055.23 C1684.63,1057.34 1684.28,1063.02 1681.73,1064.09 C1669.23,1063.38 1654.92,1063.02 1640.99,1063.02 C1629.25,1063.02 1616.07,1063.38 1603.58,1064.09 C1601.38,1062.33 1600.69,1057 1602.84,1055.23 L1610.92,1054.17 C1626.34,1052.04 1631.45,1049.9 1633.66,1025.09 C1635.88,1001.67 1637.71,982.17 1639.89,947.04 C1641.72,917.63 1643.2,887.46 1643.92,867.94 C1644.66,845.6 1641.72,840.29 1619.37,837.47 L1613.51,836.73 C1611.64,834.62 1612.01,829.29 1614.97,827.88 C1625.95,828.58 1634.78,828.95 1643.92,828.95 C1652.39,828.95 1662.27,828.95 1674.37,827.88 C1672.89,841.72 1682.07,863.71 1693.45,886.39 L1735.25,968.33 C1743.71,984.99 1751.76,1001.31 1760.56,1016.93 L1761.29,1016.93 C1771.19,1000.25 1780.36,981.8 1789.54,963.72 L1824.01,895.98 C1840.49,863.71 1851.17,844.18 1851.9,827.88 C1864.37,828.95 1872.05,828.95 1879.39,828.95 C1888.53,828.95 1900.66,828.58 1912.03,827.88 C1914.22,829.29 1914.22,835.33 1912.4,836.73 L1904.71,837.46 C1881.59,839.58 1878.65,846.31 1879.01,871.15 C1879.72,908.74 1880.12,974.36 1883.05,1025.43 C1884.18,1043.17 1883.79,1052.75 1901.03,1054.17 L1912.76,1055.23" id="Fill-22" fill="#0A0A08" sketch:type="MSShapeGroup" mask="url(#mask-2)"></path>
            <path d="M1603.64,827.88 C1606.56,829.66 1606.21,834.25 1604.36,836.39 L1595.58,837.1 C1586.4,837.81 1579.46,840.99 1577.23,845.6 C1572.09,857.3 1572.09,898.1 1572.09,917.95 L1572.09,958.05 C1572.09,988.92 1566.96,1021.53 1546.44,1042.82 C1530.65,1059.48 1503.5,1068.72 1476.35,1068.72 C1451.06,1068.72 1425.78,1064.09 1407.78,1049.19 C1388.36,1033.59 1379.19,1007.69 1379.19,965.49 L1379.19,881.79 C1379.19,844.89 1378.46,838.87 1357.16,837.1 L1348.01,836.39 C1345.8,834.97 1346.54,828.95 1348.74,827.88 C1367.09,828.58 1379.56,828.95 1394.21,828.95 C1409.24,828.95 1421.38,828.58 1439.33,827.88 C1441.53,828.95 1442.26,834.97 1440.06,836.39 L1431.26,837.1 C1409.98,838.87 1409.24,844.89 1409.24,881.79 L1409.24,958.41 C1409.24,1015.51 1427.62,1053.1 1483.73,1053.1 C1536.9,1053.1 1557.06,1012.68 1557.06,958.73 L1557.06,917.95 C1557.06,895.98 1556.32,855.18 1550.11,844.55 C1547.52,840.29 1540.92,837.82 1531.75,837.1 L1522.57,836.39 C1520.4,833.9 1521.11,829.29 1523.31,827.88 C1537.25,828.58 1550.79,828.95 1565.13,828.95 C1580.53,828.95 1590.41,828.58 1603.64,827.88" id="Fill-23" fill="#0A0A08" sketch:type="MSShapeGroup" mask="url(#mask-2)"></path>
            <path d="M1338.51,1012.32 C1341.1,1010.54 1346.24,1011.6 1347.71,1014.79 C1345.14,1027.22 1335.96,1054.52 1331.2,1064.09 C1298.21,1063.38 1265.54,1063.02 1232.91,1063.02 L1199.9,1063.02 C1184.15,1063.02 1171.65,1063.38 1150.01,1064.09 C1147.83,1063.02 1147.08,1057.34 1149.28,1055.23 L1161.39,1054.17 C1182.3,1052.38 1184.15,1047.08 1184.15,1009.83 L1184.15,882.13 C1184.15,845.26 1183.42,839.92 1161.75,837.47 L1155.88,836.73 C1153.68,835.33 1154.42,828.95 1156.62,827.88 C1172.39,828.58 1184.89,828.95 1199.9,828.95 L1268.86,828.95 C1292.32,828.95 1313.95,828.95 1318.35,827.88 C1320.56,833.9 1322.76,859.44 1324.24,875.04 C1322.76,877.17 1316.89,877.89 1315.08,875.75 C1309.56,859.09 1306.26,846.68 1287.21,842.06 C1279.48,840.29 1267.74,839.92 1251.6,839.92 L1225.21,839.92 C1214.18,839.92 1214.18,840.66 1214.18,854.13 L1214.18,925.07 C1214.18,935 1215.3,935 1226.31,935 L1247.59,935 C1262.99,935 1274.34,934.29 1278.76,932.87 C1283.15,931.46 1285.74,929.33 1287.55,920.46 L1290.48,905.91 C1292.32,903.77 1298.55,903.77 1300.02,906.26 C1300.02,914.76 1298.55,928.59 1298.55,942.1 C1298.56,954.85 1300.02,968.33 1300.02,976.13 C1298.56,978.61 1292.32,978.61 1290.48,976.49 L1287.21,962.66 C1285.74,956.27 1283.15,950.95 1275.81,949.18 C1270.67,947.77 1261.87,947.41 1247.59,947.41 L1226.31,947.41 C1215.3,947.41 1214.18,947.77 1214.18,956.99 L1214.18,1006.98 C1214.18,1025.78 1215.3,1037.84 1221.17,1043.88 C1225.58,1048.13 1233.26,1052.04 1265.54,1052.04 C1293.78,1052.04 1304.42,1050.61 1312.49,1046.71 C1319.09,1043.17 1328.97,1030.76 1338.51,1012.32" id="Fill-24" fill="#0A0A08" sketch:type="MSShapeGroup" mask="url(#mask-2)"></path>
            <path d="M1116.93,830.02 C1120.45,838.53 1123.97,858.37 1123.97,873.29 C1122.39,875.4 1116.16,876.48 1114.2,874.34 C1109.1,857.3 1098.53,834.25 1060.94,834.25 C1022.58,834.25 1014.35,857.3 1014.35,873.63 C1014.35,894.2 1033.15,909.11 1047.6,917.26 L1078.93,935 C1103.62,948.83 1127.87,969.39 1127.87,1003.08 C1127.87,1042.11 1095.4,1068.72 1044.49,1068.72 C1011.59,1068.72 990.86,1059.48 983.41,1055.58 C978.73,1047.76 973.64,1022.61 972.86,1005.92 C974.8,1003.44 980.67,1002.75 982.23,1004.87 C988.09,1022.95 1004.17,1057.71 1049.59,1057.71 C1082.47,1057.71 1098.53,1038.21 1098.53,1016.93 C1098.53,1001.31 1094.99,983.93 1066.42,967.28 L1029.23,945.27 C1009.68,933.58 986.93,913.33 986.93,884.25 C986.93,850.59 1015.93,823.27 1066.81,823.27 C1078.93,823.27 1093.05,825.4 1103.21,827.88 C1108.3,829.29 1113.81,830.02 1116.93,830.02" id="Fill-25" fill="#0A0A08" sketch:type="MSShapeGroup" mask="url(#mask-2)"></path>
            <path d="M968.84,827.88 C971.78,829.66 971.43,834.25 969.6,836.39 L960.8,837.1 C951.62,837.81 944.63,840.99 942.46,845.6 C937.32,857.3 937.32,898.1 937.32,917.95 L937.32,958.05 C937.32,988.92 932.19,1021.53 911.65,1042.82 C895.87,1059.48 868.73,1068.72 841.59,1068.72 C816.29,1068.72 790.98,1064.09 773.01,1049.19 C753.59,1033.59 744.4,1007.69 744.4,965.49 L744.4,881.79 C744.4,844.89 743.69,838.87 722.4,837.1 L713.24,836.39 C711.02,834.97 711.76,828.95 713.97,827.88 C732.3,828.58 744.78,828.95 759.45,828.95 C774.49,828.95 786.58,828.58 804.56,827.88 C806.75,828.95 807.49,834.97 805.28,836.39 L796.48,837.1 C775.22,838.87 774.49,844.89 774.49,881.79 L774.49,958.41 C774.49,1015.51 792.82,1053.1 848.92,1053.1 C902.12,1053.1 922.28,1012.68 922.28,958.73 L922.28,917.95 C922.28,895.98 921.55,855.18 915.3,844.55 C912.75,840.29 906.14,837.82 896.97,837.1 L887.8,836.39 C885.62,833.9 886.34,829.29 888.53,827.88 C902.47,828.58 916.05,828.95 930.36,828.95 C945.76,828.95 955.66,828.58 968.84,827.88" id="Fill-26" fill="#0A0A08" sketch:type="MSShapeGroup" mask="url(#mask-2)"></path>
            <path d="M715.03,1053.25 C717.77,1055.92 717.32,1062.59 714.09,1064.35 C695.23,1063.47 676.37,1063.02 659.8,1063.02 C643.69,1063.02 622.99,1063.47 604.12,1064.35 C600.89,1062.15 600.44,1055.92 603.19,1053.25 L616.55,1051.91 C639.09,1049.66 642.14,1040.11 642.14,1011.62 L640.75,820.94 L636.79,828.49 C633.57,833.39 616.07,868.99 606.88,886.34 L565.93,964.24 C545.21,1003.4 524.5,1045.22 516.22,1065.7 C515.29,1067.03 513.46,1067.46 511.62,1067.46 C510.7,1067.46 508.4,1067.03 507.49,1065.7 C499.66,1042.11 479.83,996.3 469.26,974.51 L427.83,888.61 C418.17,868.15 406.32,841.39 396.19,820.94 L395.19,826.72 C393.34,854.3 391.97,880.12 390.59,905.94 C389.2,933.08 387.35,972.67 387.35,1010.52 C387.35,1043.45 390.14,1050.57 408.06,1051.91 L425.54,1053.25 C428.78,1055.92 428.33,1063.02 425.1,1064.35 C409.44,1063.47 391.51,1063.02 374.04,1063.02 C359.27,1063.02 342.72,1063.47 327.07,1064.35 C324.32,1062.15 323.39,1055.47 326.16,1053.25 L336.29,1051.91 C355.6,1049.23 362.04,1046.56 364.81,1015.4 C367.58,986.03 369.87,961.56 372.63,917.5 C374.93,880.56 376.79,842.74 377.71,818.26 C378.61,790.22 374.93,783.52 346.86,779.99 L339.5,779.08 C337.2,776.4 337.67,769.73 341.34,767.96 C355.14,768.85 366.19,769.31 377.71,769.31 C388.29,769.31 400.71,769.31 415.9,767.96 C414.06,785.32 425.54,812.91 439.81,841.39 L492.28,944.21 C502.86,965.12 513,985.6 524.03,1005.17 L524.96,1005.17 C537.38,984.26 548.89,961.11 560.4,938.41 L603.66,853.42 C624.37,812.91 637.71,788.44 638.63,767.96 C654.27,769.31 663.95,769.31 673.16,769.31 C684.66,769.31 699.84,768.85 714.09,767.96 C716.85,769.73 716.85,777.31 714.55,779.08 L704.89,779.99 C675.89,782.66 672.22,791.1 672.68,822.28 C673.6,869.43 674.06,951.77 677.75,1015.85 C679.13,1038.12 678.67,1050.14 700.29,1051.91 L715.03,1053.25" id="Fill-27" fill="#0A0A08" sketch:type="MSShapeGroup" mask="url(#mask-2)"></path>
            <path d="M2204.47,936.4 C2202.27,942.45 2199.34,953.79 2194.94,969.39 C2183.96,1009.12 2174.04,1043.17 2162.31,1082.18 C2152.78,1114.12 2140.65,1132.2 2133.33,1139.27 C2127.83,1144.25 2110.96,1158.43 2089.31,1158.43 C2069.53,1158.43 2062.53,1146.39 2062.53,1141.06 C2062.53,1133.96 2066.93,1127.95 2070.99,1125.1 C2073.91,1122.98 2077.21,1124.04 2079.44,1126.52 C2088.21,1135.37 2099.22,1141.06 2107.28,1141.06 C2114.62,1141.06 2122.32,1138.59 2130.77,1111.27 C2147.63,1055.23 2160.45,994.23 2178.06,936.4 L2147.63,936.4 C2143.97,933.21 2145.43,926.48 2150.19,923.28 L2181.76,923.28 C2191.29,891.37 2201.19,863.71 2222.82,838.87 C2241.15,817.94 2260.22,809.44 2281.51,809.44 C2295.05,809.44 2309.74,818.65 2309.74,832.85 C2309.74,842.06 2299.84,853.05 2293.97,853.05 C2290.65,853.05 2289.19,849.88 2288.84,847.4 C2287.74,827.88 2277.44,821.5 2268.31,821.5 C2260.22,821.5 2250.31,828.58 2241.9,840.66 C2225.02,864.42 2217.69,889.58 2207.8,923.28 L2253.62,923.28 C2256.21,927.19 2255.46,932.52 2249.96,936.4 L2204.47,936.4 L2204.47,936.4 Z M2116.44,963.03 C2115.34,982.51 2104.69,1016.56 2077.55,1043.53 C2054.8,1066.21 2035.02,1068 2025.12,1068 C2001.65,1068 1986.24,1051.32 1988.43,1020.81 C1989.91,998.82 2003.46,964.43 2028.42,941.39 C2047.48,923.65 2064,918.32 2079.02,918.32 C2105.06,918.32 2117.9,937.11 2116.44,963.03 L2116.44,963.03 Z M2049.69,945.98 C2028.42,973.67 2014.11,1015.88 2012.99,1034.65 C2012.26,1047.07 2017.39,1057.34 2028.04,1057.34 C2036.12,1057.34 2045.28,1054.17 2057,1038.92 C2073.18,1018.01 2090.41,971.18 2091.13,952.37 C2091.49,941.39 2089.29,928.95 2076.45,928.95 C2069.14,928.95 2060.33,932.15 2049.69,945.98 L2049.69,945.98 Z M1735.25,968.33 C1743.71,984.99 1751.76,1001.31 1760.56,1016.93 L1761.29,1016.93 C1771.19,1000.25 1780.36,981.8 1789.54,963.72 L1824.01,895.98 C1840.49,863.71 1851.17,844.18 1851.9,827.88 C1864.37,828.95 1872.05,828.95 1879.39,828.95 C1888.53,828.95 1900.66,828.58 1912.03,827.88 C1914.22,829.29 1914.22,835.33 1912.4,836.73 L1904.71,837.46 C1881.59,839.58 1878.65,846.31 1879.01,871.15 C1879.72,908.74 1880.12,974.36 1883.05,1025.43 C1884.18,1043.17 1883.79,1052.75 1901.03,1054.17 L1912.76,1055.23 C1914.99,1057.34 1914.6,1062.67 1912.03,1064.09 C1897,1063.38 1881.95,1063.02 1868.77,1063.02 C1855.9,1063.02 1839.42,1063.38 1824.37,1064.09 C1821.81,1062.33 1821.45,1057.34 1823.65,1055.23 L1834.29,1054.17 C1852.24,1052.38 1852.24,1046.71 1852.24,1024 L1851.17,876.11 L1850.42,876.11 C1847.84,880.02 1833.92,908.4 1826.57,922.22 L1793.95,984.3 C1777.42,1015.51 1760.92,1048.84 1754.32,1065.16 C1753.59,1066.21 1752.11,1066.58 1750.66,1066.58 C1749.92,1066.58 1748.11,1066.21 1747.37,1065.16 C1741.11,1046.34 1723.51,1011.6 1715.09,994.23 L1682.07,925.78 C1674.37,909.45 1666.67,891 1658.61,874.69 L1657.87,874.69 C1656.41,896.7 1655.31,917.26 1654.21,937.82 C1653.12,959.47 1651.62,991.04 1651.62,1021.18 C1651.62,1047.42 1653.82,1053.1 1668.13,1054.17 L1682.07,1055.23 C1684.63,1057.34 1684.28,1063.02 1681.73,1064.09 C1669.23,1063.38 1654.92,1063.02 1640.99,1063.02 C1629.25,1063.02 1616.07,1063.38 1603.58,1064.09 C1601.38,1062.33 1600.69,1057 1602.84,1055.23 L1610.92,1054.17 C1626.34,1052.04 1631.45,1049.9 1633.66,1025.09 C1635.88,1001.67 1637.71,982.17 1639.89,947.04 C1641.72,917.63 1643.2,887.46 1643.92,867.94 C1644.66,845.6 1641.72,840.29 1619.37,837.47 L1613.51,836.73 C1611.64,834.62 1612.01,829.29 1614.97,827.88 C1625.95,828.58 1634.78,828.95 1643.92,828.95 C1652.39,828.95 1662.27,828.95 1674.37,827.88 C1672.89,841.72 1682.07,863.71 1693.45,886.39 L1735.25,968.33 L1735.25,968.33 Z M1557.06,917.95 C1557.06,895.98 1556.32,855.18 1550.11,844.55 C1547.52,840.29 1540.92,837.82 1531.75,837.1 L1522.57,836.39 C1520.4,833.9 1521.11,829.29 1523.31,827.88 C1537.25,828.58 1550.79,828.95 1565.13,828.95 C1580.53,828.95 1590.41,828.58 1603.64,827.88 C1606.56,829.66 1606.21,834.25 1604.36,836.39 L1595.58,837.1 C1586.4,837.81 1579.46,840.99 1577.23,845.6 C1572.09,857.3 1572.09,898.1 1572.09,917.95 L1572.09,958.05 C1572.09,988.92 1566.96,1021.53 1546.44,1042.82 C1530.65,1059.48 1503.5,1068.72 1476.35,1068.72 C1451.06,1068.72 1425.78,1064.09 1407.78,1049.19 C1388.36,1033.59 1379.19,1007.69 1379.19,965.49 L1379.19,881.79 C1379.19,844.89 1378.46,838.87 1357.16,837.1 L1348.01,836.39 C1345.8,834.97 1346.54,828.95 1348.74,827.88 C1367.09,828.58 1379.56,828.95 1394.21,828.95 C1409.24,828.95 1421.38,828.58 1439.33,827.88 C1441.53,828.95 1442.26,834.97 1440.06,836.39 L1431.26,837.1 C1409.98,838.87 1409.24,844.89 1409.24,881.79 L1409.24,958.41 C1409.24,1015.51 1427.62,1053.1 1483.73,1053.1 C1536.9,1053.1 1557.06,1012.68 1557.06,958.73 L1557.06,917.95 L1557.06,917.95 Z M1184.15,882.13 C1184.15,845.26 1183.42,839.92 1161.75,837.47 L1155.88,836.73 C1153.68,835.33 1154.42,828.95 1156.62,827.88 C1172.39,828.58 1184.89,828.95 1199.9,828.95 L1268.86,828.95 C1292.32,828.95 1313.95,828.95 1318.35,827.88 C1320.56,833.9 1322.76,859.44 1324.24,875.04 C1322.76,877.17 1316.89,877.89 1315.08,875.75 C1309.56,859.09 1306.26,846.68 1287.21,842.06 C1279.48,840.29 1267.74,839.92 1251.6,839.92 L1225.21,839.92 C1214.18,839.92 1214.18,840.66 1214.18,854.13 L1214.18,925.07 C1214.18,935 1215.3,935 1226.31,935 L1247.59,935 C1262.99,935 1274.34,934.29 1278.76,932.87 C1283.15,931.46 1285.74,929.33 1287.55,920.46 L1290.48,905.91 C1292.32,903.77 1298.55,903.77 1300.02,906.26 C1300.02,914.76 1298.55,928.59 1298.55,942.1 C1298.56,954.85 1300.02,968.33 1300.02,976.13 C1298.56,978.61 1292.32,978.61 1290.48,976.49 L1287.21,962.66 C1285.74,956.27 1283.15,950.95 1275.81,949.18 C1270.67,947.77 1261.87,947.41 1247.59,947.41 L1226.31,947.41 C1215.3,947.41 1214.18,947.77 1214.18,956.99 L1214.18,1006.98 C1214.18,1025.78 1215.3,1037.84 1221.17,1043.88 C1225.58,1048.13 1233.26,1052.04 1265.54,1052.04 C1293.78,1052.04 1304.42,1050.61 1312.49,1046.71 C1319.09,1043.17 1328.97,1030.76 1338.51,1012.32 C1341.1,1010.54 1346.24,1011.6 1347.71,1014.79 C1345.14,1027.22 1335.96,1054.52 1331.2,1064.09 C1298.21,1063.38 1265.54,1063.02 1232.91,1063.02 L1199.9,1063.02 C1184.15,1063.02 1171.65,1063.38 1150.01,1064.09 C1147.83,1063.02 1147.08,1057.34 1149.28,1055.23 L1161.39,1054.17 C1182.3,1052.38 1184.15,1047.08 1184.15,1009.83 L1184.15,882.13 L1184.15,882.13 Z" id="Stroke-28" stroke="#FFFFFF" sketch:type="MSShapeGroup" mask="url(#mask-2)"></path>
            <path d="M1044.49,1068.72 C1011.59,1068.72 990.86,1059.48 983.41,1055.58 C978.73,1047.76 973.64,1022.61 972.86,1005.92 C974.8,1003.44 980.67,1002.75 982.23,1004.87 C988.09,1022.95 1004.17,1057.71 1049.59,1057.71 C1082.47,1057.71 1098.53,1038.21 1098.53,1016.93 C1098.53,1001.31 1094.99,983.93 1066.42,967.28 L1029.23,945.27 C1009.68,933.58 986.93,913.33 986.93,884.25 C986.93,850.59 1015.93,823.27 1066.81,823.27 C1078.93,823.27 1093.05,825.4 1103.21,827.88 C1108.3,829.29 1113.81,830.02 1116.93,830.02 C1120.45,838.53 1123.97,858.37 1123.97,873.29 C1122.39,875.4 1116.16,876.48 1114.2,874.34 C1109.1,857.3 1098.53,834.25 1060.94,834.25 C1022.58,834.25 1014.35,857.3 1014.35,873.63 C1014.35,894.2 1033.15,909.11 1047.6,917.26 L1078.93,935 C1103.62,948.83 1127.87,969.39 1127.87,1003.08 C1127.87,1042.11 1095.4,1068.72 1044.49,1068.72 L1044.49,1068.72 Z M922.28,917.95 C922.28,895.98 921.55,855.18 915.3,844.55 C912.75,840.29 906.14,837.82 896.97,837.1 L887.8,836.39 C885.62,833.9 886.34,829.29 888.53,827.88 C902.47,828.58 916.05,828.95 930.36,828.95 C945.76,828.95 955.66,828.58 968.84,827.88 C971.78,829.66 971.43,834.25 969.6,836.39 L960.8,837.1 C951.62,837.81 944.63,840.99 942.46,845.6 C937.32,857.3 937.32,898.1 937.32,917.95 L937.32,958.05 C937.32,988.92 932.19,1021.53 911.65,1042.82 C895.87,1059.48 868.73,1068.72 841.59,1068.72 C816.29,1068.72 790.98,1064.09 773.01,1049.19 C753.59,1033.59 744.4,1007.69 744.4,965.49 L744.4,881.79 C744.4,844.89 743.69,838.87 722.4,837.1 L713.24,836.39 C711.02,834.97 711.76,828.95 713.97,827.88 C732.3,828.58 744.78,828.95 759.45,828.95 C774.49,828.95 786.58,828.58 804.56,827.88 C806.75,828.95 807.49,834.97 805.28,836.39 L796.48,837.1 C775.22,838.87 774.49,844.89 774.49,881.79 L774.49,958.41 C774.49,1015.51 792.82,1053.1 848.92,1053.1 C902.12,1053.1 922.28,1012.68 922.28,958.73 L922.28,917.95 L922.28,917.95 Z M492.28,944.21 C502.86,965.12 513,985.6 524.03,1005.17 L524.96,1005.17 C537.38,984.26 548.89,961.11 560.4,938.41 L603.66,853.42 C624.37,812.91 637.71,788.44 638.63,767.96 C654.27,769.31 663.95,769.31 673.16,769.31 C684.66,769.31 699.84,768.85 714.09,767.96 C716.85,769.73 716.85,777.31 714.55,779.08 L704.89,779.99 C675.89,782.66 672.22,791.1 672.68,822.28 C673.6,869.43 674.06,951.77 677.75,1015.85 C679.13,1038.12 678.67,1050.14 700.29,1051.91 L715.03,1053.25 C717.77,1055.92 717.32,1062.59 714.09,1064.35 C695.23,1063.47 676.37,1063.02 659.8,1063.02 C643.69,1063.02 622.99,1063.47 604.12,1064.35 C600.89,1062.15 600.44,1055.92 603.19,1053.25 L616.55,1051.91 C639.09,1049.66 642.14,1040.11 642.14,1011.62 L640.75,820.94 L636.79,828.49 C633.57,833.39 616.07,868.99 606.88,886.34 L565.93,964.24 C545.21,1003.4 524.5,1045.22 516.22,1065.7 C515.29,1067.03 513.46,1067.46 511.62,1067.46 C510.7,1067.46 508.4,1067.03 507.49,1065.7 C499.66,1042.11 479.83,996.3 469.26,974.51 L427.83,888.61 C418.17,868.15 406.32,841.39 396.19,820.94 L395.19,826.72 C393.34,854.3 391.97,880.12 390.59,905.94 C389.2,933.08 387.35,972.67 387.35,1010.52 C387.35,1043.45 390.14,1050.57 408.06,1051.91 L425.54,1053.25 C428.78,1055.92 428.33,1063.02 425.1,1064.35 C409.44,1063.47 391.51,1063.02 374.04,1063.02 C359.27,1063.02 342.72,1063.47 327.07,1064.35 C324.32,1062.15 323.39,1055.47 326.16,1053.25 L336.29,1051.91 C355.6,1049.23 362.04,1046.56 364.81,1015.4 C367.58,986.03 369.87,961.56 372.63,917.5 C374.93,880.56 376.79,842.74 377.71,818.26 C378.61,790.22 374.93,783.52 346.86,779.99 L339.5,779.08 C337.2,776.4 337.67,769.73 341.34,767.96 C355.14,768.85 366.19,769.31 377.71,769.31 C388.29,769.31 400.71,769.31 415.9,767.96 C414.06,785.32 425.54,812.91 439.81,841.39 L492.28,944.21 L492.28,944.21 Z M3766.81,1052.22 L3771.92,1051.4 C3791.66,1048.12 3792.81,1045.95 3795.12,1023.27 C3797.04,1005.39 3798.96,973.59 3801.32,938.93 C3802.87,914.46 3804,884.83 3804,865.11 C3804,844.3 3795.5,838.79 3780.04,836.25 L3771.52,834.8 C3768.44,831.89 3768.44,823.11 3772.72,822.02 C3785.84,822.75 3802.49,823.11 3821.41,823.11 C3834.21,823.11 3845.42,823.11 3859.34,822.02 C3859.34,844.64 3872.89,866.95 3889.88,901.26 L3915.41,952.76 C3918.89,960.12 3930.89,980.91 3936.29,990.05 C3941.34,981.25 3947.54,969.95 3957.98,948.39 L3977.69,908.23 C3996.27,870.62 4004.77,853.42 4013.26,822.02 C4031.06,823.49 4043.04,823.11 4054.66,823.11 C4067.45,823.11 4085.24,822.75 4099.15,822.02 C4103.38,824.22 4103.38,831.15 4100.31,834.8 L4089.08,836.63 C4073.25,839.18 4065.5,843.57 4065.5,862.93 C4065.5,938.18 4066.25,977.64 4068.57,1023.63 C4069.37,1040.44 4070.91,1049.22 4085.95,1051.06 L4098.38,1052.51 C4101.45,1055.42 4101.45,1063.83 4097.57,1065.3 C4079.82,1064.58 4063.15,1064.18 4044.21,1064.18 C4026.76,1064.18 4005.53,1064.58 3986.98,1065.3 C3982.31,1063.49 3981.94,1055.06 3985.79,1052.51 L3997.41,1051.06 C4015.22,1048.86 4015.22,1044.48 4015.22,1022.2 L4014.47,927.21 L4014.47,885.57 L4013.64,885.57 C3985.05,944.02 3954.08,1005.01 3928.58,1066.76 C3926.64,1068.21 3923.96,1069.32 3920.83,1069.32 C3917.37,1069.32 3913.08,1068.58 3910.79,1067.12 C3895.69,1021.82 3849.67,933.06 3827.99,885.57 L3827.25,885.57 C3825.68,909.31 3824.9,923.54 3824.53,942.54 C3824.12,966.29 3823.75,1002.84 3823.75,1024.72 C3823.75,1042.99 3826.07,1048.12 3841.53,1050.31 L3856.65,1052.51 C3859.69,1055.06 3858.96,1063.49 3855.82,1065.3 C3841.53,1064.58 3824.9,1064.18 3810.21,1064.18 C3798.4,1064.18 3783.36,1064.55 3768.54,1065.21 C3768.15,1065.23 3767.76,1065.24 3767.38,1065.26 C3767.09,1065.27 3766.81,1065.29 3766.52,1065.3 C3766.44,1065.28 3766.37,1065.25 3766.3,1065.22 C3761.48,1063.55 3761.53,1054.32 3764.97,1052.51 L3766.81,1052.22 L3766.81,1052.22 Z" id="Stroke-29" stroke="#FFFFFF" sketch:type="MSShapeGroup" mask="url(#mask-2)"></path>
            <path d="M3766.3,1065.22 C3748.24,1064.55 3728.16,1064.18 3708.83,1064.18 C3689.5,1064.18 3674.41,1064.58 3656.63,1065.3 C3652.36,1063.11 3651.6,1055.42 3655.85,1052.51 L3668.21,1050.66 C3677.1,1049.22 3678.66,1046.66 3678.66,1044.48 C3678.66,1041.92 3675.96,1033.16 3671.3,1019.64 L3660.88,988.21 C3658.92,982.39 3655.85,981.64 3642.31,981.64 L3598.99,981.64 C3589.7,981.64 3588.57,981.98 3586.2,988.96 L3571.89,1031.34 C3569.62,1038.61 3569.21,1041.55 3569.21,1044.48 C3569.21,1046.66 3572.28,1048.86 3583.14,1050.66 L3594.74,1052.51 C3597.04,1055.06 3597.8,1063.49 3593.99,1065.3 C3580.45,1064.58 3564.96,1064.58 3548.7,1064.18 C3538.47,1064.18 3530.81,1064.86 3519.52,1065.16 C3518.72,1065.18 3517.89,1065.2 3517.04,1065.22 C3514.51,1065.27 3511.8,1065.3 3508.85,1065.3 C3508.64,1065.19 3508.44,1065.07 3508.25,1064.93 C3504.65,1062.36 3505.13,1055.28 3507.72,1052.51 L3514.64,1051.77 L3518.13,1051.4 C3527.43,1050.31 3535.19,1047.37 3541.74,1033.16 C3548.33,1018.53 3555.3,1001.01 3565.71,974.69 L3600.55,885.57 C3609.44,862.54 3616.78,849.77 3615.62,839.18 C3634.19,835.18 3648.49,817.26 3649.25,817.26 C3654.3,817.26 3656.63,819.1 3658.13,824.56 C3661.27,835.18 3665.92,848.7 3675.54,874.62 L3728.15,1017.8 C3736.29,1039.72 3739.79,1048.12 3754.09,1050.31 L3766.81,1052.22 L3768.77,1052.51 C3771.06,1054.33 3771.87,1062.88 3768.54,1065.21 C3768.5,1065.24 3768.46,1065.27 3768.41,1065.3 C3768.07,1065.29 3767.73,1065.27 3767.38,1065.26 C3767.03,1065.25 3766.66,1065.23 3766.3,1065.22 L3766.3,1065.22 Z M3640.37,962.28 C3649.25,962.28 3651.17,961.19 3648.1,951.66 L3638.06,922.12 C3632.64,906.4 3627.61,891.41 3624.13,883.72 C3620.28,891.79 3614.06,907.11 3608.28,923.92 L3598.6,951.34 C3595.13,961.19 3597.04,962.28 3606.74,962.28 L3640.37,962.28 L3640.37,962.28 Z M3508.25,1064.93 C3492.77,1064.44 3477.64,1064.18 3463.27,1064.18 C3443.93,1064.18 3425,1064.58 3406.42,1065.3 C3403.3,1063.11 3403.3,1054.71 3406.42,1052.51 L3414.92,1051.4 C3432.7,1049.22 3434.66,1045.59 3434.66,1011.6 L3434.66,958.99 C3434.66,948.76 3434.66,948.39 3418.42,948.39 L3337.95,948.39 C3322.1,948.39 3321.71,948.76 3321.71,958.99 L3321.71,1011.6 C3321.71,1045.59 3324.05,1048.86 3341.42,1051.06 L3353.81,1052.51 C3356.9,1054.71 3356.9,1063.11 3353.81,1065.3 C3331.78,1064.58 3312.41,1064.18 3295.03,1064.18 C3276.44,1064.18 3257.12,1064.58 3237.41,1065.3 C3234.3,1063.11 3234.3,1054.71 3237.41,1052.51 L3246.68,1051.4 C3264.46,1049.22 3266.43,1045.59 3266.43,1011.6 L3266.43,875.72 C3266.43,841.74 3264.46,838.07 3246.68,835.91 L3237.41,834.8 C3234.3,832.6 3234.3,824.22 3237.41,822.02 C3256.33,822.75 3276.44,823.11 3295.03,823.11 C3312.41,823.11 3331.78,822.75 3348.78,822.02 C3351.89,824.22 3351.89,832.6 3348.78,834.8 L3340.65,835.91 C3324.05,838.07 3321.71,841.74 3321.71,875.72 L3321.71,918.06 C3321.71,928.68 3322.1,929.04 3337.95,929.04 L3418.42,929.04 C3434.66,929.04 3434.66,928.68 3434.66,918.06 L3434.66,875.72 C3434.66,841.74 3432.7,838.79 3414.92,836.25 L3404.46,834.8 C3401.39,832.6 3401.39,824.22 3404.46,822.02 C3425.75,822.75 3444.7,823.11 3463.27,823.11 C3482.23,823.11 3500.02,822.75 3517.79,822.02 C3520.92,824.22 3520.92,832.6 3517.79,834.8 L3510.09,835.91 C3492.31,838.45 3489.98,841.74 3489.98,875.72 L3489.98,1011.6 C3489.98,1045.59 3492.31,1048.12 3510.09,1051.06 L3514.64,1051.77 L3519.34,1052.51 C3522.36,1054.67 3522.42,1062.78 3519.52,1065.16 C3519.46,1065.21 3519.4,1065.26 3519.34,1065.3 C3518.57,1065.27 3517.8,1065.24 3517.04,1065.22 C3514.1,1065.11 3511.17,1065.01 3508.25,1064.93 L3508.25,1064.93 Z M2995.79,822.02 C3024.78,820.19 3059.15,820.03 3095.89,820.03 C3128.76,820.03 3156.99,824.78 3171.7,833.21 C3194.11,845.63 3205.75,865.82 3205.75,889.23 C3205.75,921.72 3182.53,935.65 3164.74,944.02 C3160.87,945.85 3160.87,948.05 3162.79,952.05 C3188.34,1001.01 3228.04,1070.48 3246.6,1085.46 C3256.64,1093.16 3266.71,1095.32 3272.53,1095.69 C3275.99,1097.52 3275.99,1103.01 3274.05,1105.19 C3267.85,1107.75 3255.49,1108.48 3243.48,1108.48 C3207.93,1108.48 3178.05,1074.94 3161.05,1048.62 C3155.47,1039.89 3128.87,1002.78 3114.45,971.42 C3109.8,961.55 3103.62,958.63 3093.96,958.63 C3080.39,958.63 3079.64,959.36 3079.64,966.68 L3079.64,1011.6 C3079.64,1045.19 3081.96,1047.75 3099.37,1050.66 L3109.8,1052.51 C3112.51,1054.35 3112.51,1063.11 3109.8,1065.3 C3089.31,1064.58 3071.56,1064.18 3052.93,1064.18 C3033.62,1064.18 3016.58,1064.58 2996.47,1065.3 C2993.4,1063.11 2993.4,1054.35 2996.47,1052.51 L3006.92,1050.66 C3024.33,1047.75 3026.66,1045.19 3026.66,1011.6 L3026.66,882.28 C3026.66,845.77 3025.87,839.79 3009.64,837.59 L2996.35,834.78 C2996.16,834.69 2995.97,834.58 2995.79,834.45 C2992.36,832.06 2991.36,823.75 2995.79,822.02 L2995.79,822.02 Z" id="Stroke-30" stroke="#FFFFFF" sketch:type="MSShapeGroup" mask="url(#mask-2)"></path>
            <path d="M3079.64,928.68 C3079.64,941.47 3080.81,942.54 3103.62,942.54 C3117.55,942.54 3125.67,939.25 3133.02,932.33 C3139.61,926.14 3146.96,914.46 3146.96,892.88 C3146.96,860 3126.46,836.83 3096.3,836.83 C3080.39,836.83 3079.64,839.92 3079.64,857.46 L3079.64,928.68 L3079.64,928.68 Z M2995.79,834.45 L2988.79,835.91 C2978.71,838.07 2971.38,840.29 2967.92,847.97 C2963.65,857.46 2962.13,885.21 2962.13,914.79 L2962.13,955.72 C2962.13,990.05 2958.63,1021.45 2937.35,1043.73 C2920.32,1060.91 2892.1,1070.05 2860.76,1070.05 C2831.36,1070.05 2805.06,1065.65 2784.2,1049.58 C2764.07,1033.88 2755.55,1006.86 2755.55,967.02 L2755.55,875.72 C2755.55,841.74 2753.23,839.54 2735.83,836.25 L2726.15,834.45 C2723.09,832.23 2722.69,824.22 2726.93,822.02 C2745.5,822.75 2764.85,823.11 2783.41,823.11 C2802.35,823.11 2821.3,822.75 2839.88,822.02 C2842.97,824.22 2842.97,832.23 2839.88,834.45 L2830.6,835.91 C2813.21,838.79 2810.87,841.74 2810.87,875.72 L2810.87,960.12 C2810.87,1002.84 2815.9,1049.95 2874.68,1049.95 C2924.19,1049.95 2939.27,1009.02 2939.27,958.99 L2939.27,914.79 C2939.27,885.21 2937.75,857.46 2933.48,847.97 C2930.02,840.29 2921.48,838.07 2911.04,836.25 L2900.6,834.45 C2897.5,831.51 2898.28,824.22 2900.6,822.02 C2921.48,822.75 2936.56,823.11 2952.43,823.11 C2966.76,823.11 2981.05,822.75 2995.79,822.02 C2998.09,824.22 2998.85,831.51 2995.79,834.45 L2995.79,834.45 Z M2417.77,841.4 C2417.77,799.12 2416.84,790.7 2395.67,788.46 L2386.92,787.54 C2382.32,785.31 2382.32,772.42 2387.84,771.97 C2426.51,769.75 2462.39,767.96 2511.2,767.96 C2548.93,767.96 2586.67,771.53 2618.43,782.64 C2678.72,803.57 2711.84,856.1 2711.84,911.74 C2711.84,971.36 2682.4,1019.44 2629.47,1044.82 C2598.17,1059.94 2560.44,1065.72 2513.02,1065.72 C2491.38,1065.72 2468.39,1063.06 2451.81,1063.06 C2429.74,1063.06 2406.25,1063.51 2380.01,1064.39 C2378.17,1063.06 2377.25,1059.71 2377.25,1056.43 C2377.25,1053.15 2378.17,1049.93 2380.01,1048.84 L2394.29,1046.6 C2415,1043.48 2417.77,1039.91 2417.77,998.96 L2417.77,841.4 L2417.77,841.4 Z M2478.5,982.49 C2478.5,1006.97 2479.41,1023.01 2487.71,1032.35 C2495.99,1041.26 2514.41,1045.27 2530.97,1045.27 C2610.6,1045.27 2642.6,977.64 2642.6,917.11 C2642.6,837 2594.03,788.46 2510.73,788.46 C2498.29,788.46 2490.48,791.56 2486.8,794.23 C2481.76,797.88 2478.5,806.24 2478.5,820.03 L2478.5,982.49 L2478.5,982.49 Z M5622.439,1009.98 C5622.439,1048.04 5624.65,1053.76 5644.52,1055.18 L5658.5,1056.23 C5660.7,1058.37 5659.96,1064.08 5657.72,1065.16 C5634.94,1064.44 5622.439,1064.08 5607.68,1064.08 C5592.25,1064.08 5579,1064.44 5559.48,1065.16 C5557.24,1064.08 5556.51,1058.37 5558.73,1056.23 L5570.16,1055.18 C5591.5,1053.04 5592.25,1048.04 5592.25,1009.98 L5592.25,991.81 C5592.25,972.25 5591.15,967.62 5580.46,947.68 L5537.03,865.82 C5524.5,842.32 5518.97,840.53 5507.96,838.77 L5497.66,836.98 C5495.45,834.48 5495.81,829.5 5498.34,828.1 C5510.14,828.79 5523.42,829.15 5541.06,829.15 C5558.01,829.15 5571.24,828.79 5580.46,828.1 C5583.74,829.15 5583.74,834.83 5581.54,836.98 L5576.79,837.71 C5563.87,839.47 5561.33,841.24 5561.33,844.1 C5561.33,847.65 5570.89,867.94 5572.729,871.52 C5586.35,897.85 5599.98,925.96 5614.33,950.53 C5625.72,931.65 5637.87,911.01 5648.9,890.37 C5659.2,871.86 5672.85,847.65 5672.85,843.38 C5672.85,841.24 5666.22,838.77 5657.39,837.71 L5650.72,836.98 C5648.2,834.48 5648.54,829.5 5651.5,828.1 C5664.73,828.79 5675.39,829.15 5686.82,829.15 C5698.22,829.15 5708.52,828.79 5721.069,828.1 C5723.98,829.85 5724.38,834.83 5721.77,836.98 L5711.47,838.77 C5692.33,841.96 5681.3,864.39 5662.92,895.01 L5639.71,933.79 C5623.51,960.84 5622.439,964.05 5622.439,991.46 L5622.439,1009.98 L5622.439,1009.98 Z M5340.75,882.88 C5340.75,849.08 5339.63,843.02 5324.55,841.24 L5312.76,839.83 C5310.21,838.04 5310.21,832.36 5313.13,830.94 C5333.73,829.15 5359.14,828.1 5395.22,828.1 C5418.04,828.1 5439.74,829.85 5456.7,838.77 C5474.37,847.65 5487.229,863.68 5487.229,888.6 C5487.229,922.4 5459.62,940.92 5441.22,948.04 C5439.38,950.16 5441.22,953.74 5443.06,956.58 C5472.51,1002.51 5522.55,1072.82 5547.59,1093.13 C5553.82,1098.44 5563.029,1102.38 5572.97,1103.07 C5574.83,1103.78 5575.17,1106.63 5573.34,1108.07 C5570.03,1109.14 5564.13,1109.83 5557.13,1109.83 C5525.85,1109.83 5488.6,1072.73 5462.47,1036.78 C5452.89,1023.59 5425.76,985.42 5414.34,969.37 C5408.819,961.56 5402.93,958.01 5388.21,958.01 C5371.66,958.01 5370.93,958.35 5370.93,965.85 L5370.93,1010.69 C5370.93,1048.04 5371.66,1052.33 5392.99,1055.18 L5400.74,1056.23 C5402.93,1058.03 5402.2,1064.08 5399.99,1065.16 C5383.45,1064.44 5370.93,1064.08 5356.2,1064.08 C5340.75,1064.08 5327.5,1064.44 5310.21,1065.16 C5307.979,1064.08 5307.26,1058.75 5309.47,1056.23 L5318.65,1055.18 C5340.01,1052.68 5340.75,1048.04 5340.75,1010.69 L5340.75,882.88 L5340.75,882.88 Z" id="Stroke-31" stroke="#FFFFFF" sketch:type="MSShapeGroup" mask="url(#mask-2)"></path>
            <path d="M5370.93,933.79 C5370.93,940.2 5370.93,944.12 5372,945.53 C5373.14,946.62 5378.63,947.33 5397.43,947.33 C5410.69,947.33 5424.66,945.9 5435.35,938.06 C5445.29,930.59 5453.74,918.14 5453.74,893.93 C5453.74,865.82 5435.67,839.1 5394.85,839.1 C5372,839.1 5370.93,840.53 5370.93,850.51 L5370.93,933.79 L5370.93,933.79 Z M5066.22,949.1 C5066.22,877.93 5117.36,823.46 5187.59,823.46 C5266.34,823.46 5305.88,882.88 5305.88,945.53 C5305.88,1017.45 5253.38,1069.79 5187.59,1069.79 C5111.899,1069.79 5066.22,1013.18 5066.22,949.1 L5066.22,949.1 Z M5271.79,956.58 C5271.79,897.85 5246.91,834.48 5181.81,834.48 C5146.34,834.48 5100.3,859.76 5100.3,937.69 C5100.3,990.4 5124.84,1058.75 5192.01,1058.75 C5232.91,1058.75 5271.79,1026.69 5271.79,956.58 L5271.79,956.58 Z M4969.85,1010.69 C4969.85,1048.04 4970.62,1053.4 4991.97,1055.18 L5003.7,1056.23 C5005.91,1057.68 5005.2,1064.08 5002.98,1065.16 C4982,1064.44 4969.49,1064.08 4954.77,1064.08 C4940.03,1064.08 4927.169,1064.44 4903.61,1065.16 C4901.38,1064.08 4900.66,1058.03 4903.61,1056.23 L4916.84,1055.18 C4937.819,1053.4 4939.67,1048.04 4939.67,1010.69 L4939.67,851.57 C4939.67,840.53 4939.67,840.18 4928.65,840.18 L4908.38,840.18 C4892.57,840.18 4872.3,840.9 4863.12,849.08 C4854.29,856.9 4850.6,864.76 4846.56,873.64 C4843.61,875.78 4838.45,874 4837.01,871.14 C4842.87,855.14 4848.39,832.36 4850.99,818.11 C4852.08,817.4 4856.86,817.05 4857.96,818.11 C4860.18,829.5 4872.3,829.15 4889.23,829.15 L5038.31,829.15 C5058.18,829.15 5061.52,828.44 5067.04,819.2 C5068.89,818.46 5072.92,818.83 5073.64,820.25 C5069.6,834.83 5067.04,863.68 5068.15,874.35 C5066.65,877.21 5060.39,877.21 5058.569,875.07 C5057.45,866.15 5054.87,853 5049.34,849.08 C5040.899,843.02 5026.89,840.18 5006.65,840.18 L4980.53,840.18 C4969.49,840.18 4969.85,840.53 4969.85,852.27 L4969.85,1010.69 L4969.85,1010.69 Z M4741.38,1069.79 C4708.37,1069.79 4687.54,1060.52 4680.11,1056.61 C4675.37,1048.76 4670.259,1023.49 4669.48,1006.78 C4671.43,1004.28 4677.32,1003.57 4678.919,1005.69 C4684.81,1023.85 4700.9,1058.75 4746.51,1058.75 C4779.51,1058.75 4795.6,1039.17 4795.6,1017.79 C4795.6,1002.14 4792.05,984.69 4763.38,967.99 L4726.07,945.9 C4706.42,934.16 4683.64,913.85 4683.64,884.66 C4683.64,850.88 4712.7,823.46 4763.79,823.46 C4775.98,823.46 4790.1,825.58 4800.31,828.1 C4805.44,829.5 4810.93,830.22 4814.09,830.22 C4817.59,838.77 4821.149,858.7 4821.149,873.64 C4819.54,875.78 4813.27,876.84 4811.32,874.72 C4806.21,857.61 4795.6,834.48 4757.88,834.48 C4719.37,834.48 4711.14,857.61 4711.14,874 C4711.14,894.64 4729.98,909.59 4744.54,917.77 L4775.98,935.57 C4800.71,949.47 4825.09,970.11 4825.09,1003.92 C4825.09,1043.07 4792.48,1069.79 4741.38,1069.79 L4741.38,1069.79 Z M4593.34,883.27 C4593.34,845.53 4592.6,839.47 4570.9,837.71 L4561.71,836.98 C4559.5,835.57 4560.25,829.15 4562.42,828.1 C4580.84,828.79 4593.34,829.15 4608.8,829.15 C4623.53,829.15 4636.05,828.79 4654.45,828.1 C4656.66,829.15 4657.39,835.57 4655.189,836.98 L4645.98,837.71 C4624.26,839.47 4623.53,845.53 4623.53,883.27 L4623.53,1009.98 C4623.53,1047.7 4624.26,1052.68 4645.98,1055.18 L4655.189,1056.23 C4657.39,1057.68 4656.66,1064.08 4654.45,1065.16 C4636.05,1064.44 4623.53,1064.08 4608.8,1064.08 C4593.34,1064.08 4580.84,1064.44 4562.42,1065.16 C4560.25,1064.08 4559.5,1058.37 4561.71,1056.23 L4570.9,1055.18 C4592.6,1052.68 4593.34,1047.7 4593.34,1009.98 L4593.34,883.27 L4593.34,883.27 Z M4326.75,919.8 C4304.56,919.8 4302.14,920.69 4302.14,934.1 L4302.14,997.07 C4302.14,1043.97 4305.94,1050.24 4331.83,1052.9 L4345.21,1054.27 C4347.99,1056.02 4347.06,1064.08 4344.3,1065.42 C4319.36,1064.53 4303.649,1064.08 4285.64,1064.08 C4265.77,1064.08 4250.08,1064.96 4232.06,1065.42 C4229.279,1064.08 4228.37,1056.93 4231.14,1054.27 L4238.99,1052.9 C4264.85,1048.43 4265.77,1043.97 4265.77,997.07 L4265.77,836.28 C4265.77,789.39 4262.56,781.79 4238.53,780.02 L4226.5,779.11 C4223.77,777.34 4224.66,769.3 4227.45,767.96 C4250.08,768.39 4265.77,769.3 4285.64,769.3 C4303.649,769.3 4319.36,768.85 4339.23,767.96 C4342,769.3 4342.89,777.34 4340.14,779.11 L4331.37,780.02 C4304.56,782.68 4302.14,789.39 4302.14,836.28 L4302.14,887.65 C4302.14,901.51 4304.56,901.94 4326.75,901.94 L4458.84,901.94 C4481,901.94 4483.96,901.51 4483.96,887.65 L4483.96,836.28 C4483.96,789.39 4481,782.68 4453.76,780.02 L4444.98,779.11 C4442.21,777.34 4443.14,769.3 4445.92,767.96 C4467.16,768.85 4482.85,769.3 4501.79,769.3 C4519.8,769.3 4535.52,768.85 4556.27,767.96 C4559.04,769.3 4559.99,777.34 4557.22,779.11 L4547.52,780.02 C4520.71,782.68 4519.8,789.39 4519.8,836.28 L4519.8,997.07 C4519.8,1043.97 4520.71,1049.8 4547.52,1052.9 L4558.61,1054.27 C4561.38,1056.02 4560.439,1064.08 4557.65,1065.42 C4535.52,1064.53 4519.8,1064.08 4501.79,1064.08 C4482.85,1064.08 4466.22,1064.53 4445.92,1065.42 C4443.14,1064.08 4442.21,1056.93 4444.98,1054.27 L4453.76,1052.9 C4481.93,1048.43 4483.96,1043.97 4483.96,997.07 L4483.96,934.1 C4483.96,920.69 4481,919.8 4458.84,919.8 L4326.75,919.8 L4326.75,919.8 Z" id="Stroke-32" stroke="#FFFFFF" sketch:type="MSShapeGroup" mask="url(#mask-2)"></path>
            <path d="M3024,1050.8 C3027,1050.8 3029.44,1053.24 3029.44,1056.24 C3029.44,1059.24 3027,1061.67 3024,1061.67 C3021,1061.67 3018.56,1059.24 3018.56,1056.24 C3018.56,1053.24 3021,1050.8 3024,1050.8 L3024,1050.8 Z M3024,1051.74 C3026.49,1051.74 3028.5,1053.75 3028.5,1056.24 C3028.5,1058.72 3026.49,1060.74 3024,1060.74 C3021.52,1060.74 3019.5,1058.72 3019.5,1056.24 C3019.5,1053.75 3021.52,1051.74 3024,1051.74 L3024,1051.74 Z" id="Fill-33" fill="#0A0A08" sketch:type="MSShapeGroup" mask="url(#mask-2)"></path>
            <path d="M3024,1050.8 C3027,1050.8 3029.44,1053.24 3029.44,1056.24 C3029.44,1059.24 3027,1061.67 3024,1061.67 C3021,1061.67 3018.56,1059.24 3018.56,1056.24 C3018.56,1053.24 3021,1050.8 3024,1050.8 L3024,1050.8 Z M3024,1051.74 C3026.49,1051.74 3028.5,1053.75 3028.5,1056.24 C3028.5,1058.72 3026.49,1060.74 3024,1060.74 C3021.52,1060.74 3019.5,1058.72 3019.5,1056.24 C3019.5,1053.75 3021.52,1051.74 3024,1051.74 L3024,1051.74 Z" id="Stroke-34" stroke="#F3EDDB" stroke-width="0.216" sketch:type="MSShapeGroup" mask="url(#mask-2)"></path>
        </g>
    </g>
</svg>